<svg xmlns="http://www.w3.org/2000/svg" shape-rendering="geometricPrecision" text-rendering="geometricPrecision" image-rendering="optimizeQuality" fill-rule="evenodd" clip-rule="evenodd" viewBox="0 0 390 512.242"><path d="M195.824 0c8.731 0 16.637 3.54 22.358 9.263 5.722 5.721 9.262 13.626 9.262 22.358 0 8.73-3.54 16.636-9.262 22.358a31.631 31.631 0 01-11.944 7.506v33.227l-.002.185h86.921c31.96 0 58.108 26.149 58.108 58.109v115.491c0 31.96-26.148 58.109-58.108 58.109h-65.772v27.511h5.514c5.345 0 10.197 2.18 13.709 5.691.272.272.526.557.762.851 3.039 3.418 4.9 7.887 4.928 12.749h19.731c28.385 26.645 27.774 92.652 27.373 135.697l-.029 3.137H92.523l-.071-6.479c-.1-8.73-.208-18.245-.069-28.088.129-.402.198-.829.198-1.273 0-.396-.055-.78-.159-1.143.694-38.018 5.342-80.298 28.468-100.719a4.14 4.14 0 00.9-1.132h17.198c.03-5.255 2.202-10.053 5.69-13.56l.064-.063c3.528-3.498 8.357-5.668 13.644-5.668h4.229v-27.511H98.129c-31.96 0-58.109-26.149-58.109-58.109V153.006c0-31.96 26.149-58.109 58.109-58.109h87.283l-.003-.185V61.484a31.636 31.636 0 01-11.943-7.505c-5.722-5.722-9.262-13.628-9.262-22.358 0-8.731 3.54-16.636 9.262-22.359C179.188 3.54 187.095 0 195.824 0zm-44.267 418.45h89.117c7.228 0 13.141 5.916 13.141 13.141v24.559c0 7.224-5.916 13.141-13.141 13.141h-89.117c-7.225 0-13.141-5.914-13.141-13.141v-24.559c0-7.228 5.913-13.141 13.141-13.141zm10.177 18.652a6.769 6.769 0 110 13.538 6.77 6.77 0 010-13.538zm68.763 0a6.769 6.769 0 110 13.538 6.77 6.77 0 010-13.538zM36.248 472.236v-20.14c0-41.696 32.821-76.052 73.917-78.537-20.465 23.127-25.131 62.636-25.982 98.677H36.248zm47.97 40.006H46.663c-5.752 0-10.415-4.663-10.415-10.415v-21.259h47.801c-.083 8.835.014 17.359.104 25.26.024 2.117.048 4.183.065 6.414zm199.258-138.589c40.435 3.175 72.508 37.224 72.508 78.443v20.14h-48.433c-1.011-35.803-5.651-75.323-24.075-98.583zm72.508 106.915v21.259c0 5.752-4.663 10.415-10.414 10.415h-37.896l.027-3.072c.082-8.772.17-18.468.025-28.602h48.258zm-204.427-72.532h89.117c6.452 0 12.337 2.655 16.623 6.932l.021-.02c4.264 4.264 6.911 10.156 6.911 16.643v24.559c0 6.44-2.647 12.318-6.912 16.602l-.065.064c-4.282 4.251-10.149 6.889-16.578 6.889h-89.117c-6.487 0-12.379-2.647-16.643-6.912a10.557 10.557 0 01-.707-.781c-3.849-4.209-6.205-9.785-6.205-15.862v-24.559c0-6.46 2.647-12.339 6.911-16.604l.02-.02-.02-.02c4.263-4.263 10.156-6.911 16.644-6.911zm6.829-43.505h74.513c4.906 0 8.925 3.985 8.984 8.877h-92.48c.058-4.892 4.078-8.877 8.983-8.877zM31.698 157.321h1.032v106.341h-1.032C13.691 263.662 0 248.929 0 230.923v-40.864c0-18.007 13.691-32.738 31.698-32.738zm326.604 0h-1.032v106.341h1.032c18.007 0 31.698-14.733 31.698-32.739v-40.864c0-18.007-13.691-32.738-31.698-32.738zm-231.29 1.798c11.488 0 21.89 4.658 29.419 12.187 7.528 7.528 12.186 17.931 12.186 29.418 0 11.487-4.658 21.889-12.186 29.419-7.529 7.528-17.931 12.186-29.419 12.186s-21.889-4.658-29.419-12.186c-7.528-7.53-12.186-17.932-12.186-29.419 0-11.487 4.658-21.89 12.186-29.418 7.53-7.529 17.931-12.187 29.419-12.187zm137.262 0c11.488 0 21.89 4.658 29.419 12.187 7.529 7.528 12.186 17.931 12.186 29.418 0 11.487-4.657 21.889-12.186 29.419-7.529 7.528-17.931 12.186-29.419 12.186-11.487 0-21.889-4.658-29.418-12.186-7.529-7.53-12.187-17.932-12.187-29.419 0-11.487 4.658-21.89 12.187-29.418 7.529-7.529 17.931-12.187 29.418-12.187zm0 17.542c13.291 0 24.063 10.773 24.063 24.063s-10.772 24.063-24.063 24.063c-13.289 0-24.063-10.773-24.063-24.063s10.774-24.063 24.063-24.063zm0-11.293c19.527 0 35.356 15.829 35.356 35.356 0 19.526-15.829 35.356-35.356 35.356-19.526 0-35.356-15.83-35.356-35.356 0-19.527 15.83-35.356 35.356-35.356zm-137.262 11.293c13.291 0 24.063 10.773 24.063 24.063s-10.772 24.063-24.063 24.063c-13.289 0-24.063-10.773-24.063-24.063s10.774-24.063 24.063-24.063zm0-11.293c19.527 0 35.356 15.829 35.356 35.356 0 19.526-15.829 35.356-35.356 35.356-19.526 0-35.356-15.83-35.356-35.356 0-19.527 15.83-35.356 35.356-35.356zm100.216 99.627a6.25 6.25 0 010 12.498h-63.171a6.25 6.25 0 010-12.498h63.171zm-14.669-151.686a7.436 7.436 0 11.001 14.871 7.436 7.436 0 01-.001-14.871zm-33.832 0a7.435 7.435 0 110 14.87 7.434 7.434 0 01-7.435-7.435 7.434 7.434 0 017.435-7.435z"/></svg>